<svg xmlns="http://www.w3.org/2000/svg" viewBox="0 0 1000 500">
    <path fill="rgba(255,255,255,0.7)" d="M139.7,117.2l0.9,3.7l3,0.3l1.8,2.8l2-0.9l2.7,2.2l4.9-0.5l1.6,1.4l0.1,5.1l-2,2.8l-1.3,6l1.3,4.4l3.1,0.2 l1.3-4.1l2.9-0.9l-2-3l1.8-1.5l2,1.3l1.3-2.1l1.5-0.1l-0.3-1.6l1.3-0.7l1.1,1.1l-0.9,4.4l4.5,1.2l-0.5,1.4l2,0.9l-2,4.8l2,1 l2.3-1.1l1.3,1.3l-0.3,3l2.8,3.2l-0.4,1.8l-2.7,0.3l-1.4,1.8l1.3,4.3L175,159l-1.2-2.1l-1.4,0.1l-0.7,1.6l0.2,4.4l-2.4,1.7 l-0.3-2.6l-3.2,0.6l-0.3-1.6l2.3-2.3l-1.3-2.3l-2.4-0.1l-0.1,2.8l-1.6,2.1l1.6,5l-1.6,1.5v3.4l2.1,1.3l2.5-1.5l0.1-2.9l1.8-0.9 l2.5,3.9l0.1,3.4l1.8,1.5l1.8-0.7l-0.2-2.3l3.2-2.1l4-0.1l1.2-1.3l5-1l4.8,2.7l1.9-1lnull0l-0.7-3.6l1.2-0.4l3.2,2.3l0.3,3.7l1.8,0.7 l2.6-1.5l-0.5-2.2l3.4-3.6l2.6-0.3v-2.1l3.3-0.9l0.9-2l-0.4-1.5l1.5-0.7l2.8,0.4l0.9,2.8l5.2,1.3l0.5-1.6l-1.1-2.4l1.8-3.3l3.7-0.7 l0.5,1.7v-2.5l5.5,1l-0.4,1.7l3.8,1l-0.7,2.3l1.6,1l0.3-2.2l-1.9-1.2l-0.3-2.8l2.6-3l1.2-4l4.5-0.4l3.6,1.2l2.6-1l-2.3-2.3l0.9-4.7 l2.3-1.6l-2.7-3.4l1.3-2.4l-1-2l1.9-3.9l2.8-1.5l-0.3-1.3h-3.1l-0.4-1.2l4.1,0.1l1.5-2l-1.5-1.2l1-4h1.7h3.8l0.9-1.3l-1.1-3 l1.9-4.2l3.9-0.7l0.1-1.3l7.9,1.1l-0.9-4l5.3-2.2l1.1-3l2.2-0.1l-0.7-5h5.1l-1.1-1.5h1.9l2-3.2h2l-0.7-1.4l1.4-1.1l0.3,1.4v2.7 l0.7,0.3l1.5-2.2l1.7-1v-2l1.8-0.8l0.9,1.7l3,0.7v-2l2.3,0.3l0.3,4.4h2l2-1.9l1,1.9h2.3l2.3-1.5l2.4,1.5v3.1l-1.3,0.4l1.3,10.7 l3.4,2.3v3l5.8-0.7l-0.4,14l7.6,0.5l-1.4,1.1l-1.6-0.4l0.1,2.5l0.7,1.5l2,0.1l-2.1,3.4l2,1.8L324,115l0.3-13.8l0.6-5.7l0.5-10.7 l-2.6-4.5l-2.1,1.5v-1l-2.7-2l-2.1-4.7l0.3-2.5l2.7-1v2.5h0.4l5.2-3v-4.5l2.4-0.5l3.2-3.5l1.6,3.5l3.4,0.5l-2,4.5l5.5,1.5l-2,5 l3.8,2.5v2.5l-3.3,4l0.8,4.5l3.4-1v2.5l4-1.5l3,4.5l-0.2,3h2.3l1.3-3.6l1.3,0.2l-3,4.9l7.7-1.4v2.4l3.7,1v4.7l0.6,8.4l1.4,2.6 l6.1-2l0.5-2.6l4-0.9l0.9-3.1l0.6,3.6h4.5l4.3,2.6h20.6l0.3-4.5l-1.2-0.1v-2l4.8,0.4v3.2l2.3,0.8l3-1.5l0.3-2l7-1.3h4l2.1,2.9 h0.6l3.5-5.9l8.6-2.5l2.4,1.1l0.4,1.9v2l1.7-1v-1l4.4,0.5l-4-5l6.5-1v2h1v-4h2v2h2v-4h4.5l-1-2h9l1,2l3,1h6l3-1v3l2.5-3.5l2.5-1.5 h3.5l-0.5,2h5.5l1-1h1l3.5-3.5h0.5v-2l2.5,1h4.5l2-2.5h1.5l2.5-2h8.5l2,1v1.5h1l0.5,2v-2h-0.5h2l4.5-0.5h1v4l1.5-1v-1.5h2h1v1.5h2 l7.5,7.5v1l3-1h0.5l5.5,1v1h2l-4.5,4v3h4l5.5-1.5h8v2l5,1.5h5l3,3.5l1,3v1h-1l-0.5,2h1.5l1,1.5l5,1h5l9-8v-1.5l6-3.5l2.5,2v-1l5-1 l-1,1h1.5l0.5-1h1.5l3.5,6.5l1-1v1l3-0.5h0.5v1h2v-1h2l1,1v0.5l2.5-0.5l1-1h1l2,4.5v1.5h10v2.5l1.5,1v-1l3,3.5l1,5h-0.5l-1-2 v-1.5h-10l-1.5-1h-1l-2,3l-3,1h-4l-3,3.5l-2.5-0.5v2.5l1.5,1l-0.5,3h-2l-1.5,2l1.5,1h1.5v-1l0.5,0.5h1l-1.5-0.5h1v-1.5l2,2h2.5l1.5-2 l1.5-3l1.5-1.5H356l2-2l2-1h1.5l-0.5-1h1.5l2,2l0.5,4.5v4.5l2-0.5v1.5h1.5l0.5,1v-2l4,0.5l1-1.5l4-2.5l1.5,0.5h4.5v-2l3-1.5l-1-2 l-1.5,0.5l-1-1v1h-3v1h-4v-1.5h-1l-1-2.5l2-2H367v-3l1.5-3l1.5,1.5h1v1h-0.5l-0.5,2h1.5l0.5-1.5v2h-1.5v1.5h1l-1,1h2v-2l3.5-3.5l4.5,0.5 v1.5h1.5l-2,3l1-0.5v2l1,2.5h2v-2l2-1h3.5l2.5,1.5v0.5l-3,0.5H380l-2.5-0.5l0.5,2l1.5-0.5v2l2,1.5h3.5l-0.5-2.5h1.5l-1.5,3.5v1h-1.5v-2 l-1.5,1.5v1h-1l-3.5-2.5v1.5H379l-4,0.5h-2l2-2.5h-1v-2l1.5-1l-3-1v2.5h-4l-3-2v3l-0.5,4h-2.5l0.5,2.5v1.5l-1.5-1l-1,2H354v2h-2v2h2v-2 h3l1.5-2.5l-0.5-2l1-1l3,1h1l0.5,2h2.5v1.5l-2.5,2l1.5,3H365v2.5h-6H351v1l-1,1.5h2v-1l3,1v-0.5h4v-1h-0.5v1h-1.5v-1.5h1.5v-1l3-1.5 l2,2.5l-1.5,1l0.5-0.5h-1v0.5l2.5-1h2.5h1.5v2l-1.5-1l-1.5,0.5v-1h-3.5l0.5,1l-0.5,0.5v-1.5h-1.5l-2.5,2h-1v-1l-1.5,0.5H352v1h-2 v-1.5l1.5-0.5l-0.5-2.5l-2.5,2h-1.5v1l3.5-1h1.5l-3.5,4h3v0.5h2v-0.5h1.5v0.5l1,0.5v1.5l1.5,1l0.5-1.5l-0.5-2h2.5l2-1V310h0.5v2 l1.5,0.5h2.5l2,1l0.5-1.5h1v1.5h2.5L371,315h2l-2-2.5h1v1l3.5-2.5H380v-2l1-1v1l1.5-1l0.5,1v1.5l-3.5,1h-1l2.5,1v1h-1.5l-0.5-1 H376l-1.5,1h-1v1.5h3l0.5,1l1.5-0.5h-0.5v-1h3.5v1h-1.5v2.5h4l1-1h1v1.5h-1v1l2.5,0.5h-1.5l1.5,1h-3v1l3,1v1.5l1.5-0.5l-1,1.5 H381l-1.5-2v-1.5h-1v2.5l-2.5,2H375l2.5,2.5H380l1-2l1,1.5H386l-2,1l3,2l-0.5,1H385h-2l-0.5-1h0.5v-1l-2.5-3h-1.5v-2l1-0.5 H373v-2l1-1h-1l-2,1.5l0.5-2l-3-4v-1h-2v1.5H364v-1l-2.5,4h-0.5v-3.5l-0.5,1.5H359l-1-2.5l-2,1v1.5h-2v-1.5h-3l0.5-2.5l-1-2l1.5-1 h-1.5h-2.5v-0.5l-1-0.5l-0.5,1l0.5-1.5h-1v-1.5l1.5-0.5v-2H348v-2h-3v2.5h1.5l0.5-3h-1v1.5H343l-1-1v-2H340l0.5-1.5l-1-1H336l-1.5-1.5 h-1l1-2v-1l-1.5-1h-1.5l-2-1H328v-1.5l1.5-0.5v0.5H332v-3.5l1-1v-2H334v1h3v-2h-2v1.5h-3.5l-1.5-1h-2.5l-0.5-1.5h1.5l1,0.5 H330l1-1H332l-2.5-0.5h1l-1-0.5v-0.5h1l-0.5-0.5h1.5v-1.5H332v1.5l1-2h1.5l2-1.5h-1.5l3.5,0.5h-1l2-4H338l0.5,1h3v1h-3.5l-2,3 H336v-1h2.5v-1.5h1l-1.5-2h-1v1.5l-1.5-1V242h1.5v1.5h2l-2-2.5H338v-2H336l1.5,1H338l-4.5-0.5L333,235v-1.5H330l-0.5,1H329l1,1.5 H329v3l-0.5,2H328l-2.5,2h-1.5l0.5-1l-1.5-0.5H322l1-1h1.5l-2-1V237l1-2h-0.5l0.5-2h-1l1-2h-1.5l0.5-2V226l1-1h-1V222l2.5-3 H323l1-2h-1l1.5-1.5V213H325v1H321l-3-4h-2.5l-1,1h-1.5l1-0.5H312l-1.5,1.5V214h-1v2h2v-1h2l0.5,1H315l1.5,1v-1h-2l1,2H314v0.5 H313v1H315l1-1H314l3.5,1H319l-3,1v-0.5H315v0.5H314l-0.5,1.5H311l1-0.5H311l-0.5-1.5H310l-1.5,3H307l0.5,2.5H306l1-0.5v2.5 H306l-1,3H302l1,2H301v2h-1.5l1-1h2L301,232h1v1h-1.5l0.5,1h-1.5l0.5,1h-1.5v0.5l0.5,0.5H298v1h-1v-2H296v2.5h-1v-2h-0.5l0.5,2H293 l-1H291v-1.5h1v-1H290v-2h0.5v-1H289v2.5h-1.5l-1,1.5H285v1.5h-1.5v-1H282v1h-2v1.5h1v-0.5h0.5l0.5,1H283v2.5h1v-1h1v1.5H286 v0.5h-3v1h1v1h-1v1h0.5v1h-2v1.5h1.5l1-1h1v1.5l1,0.5v-1h1l0.5,2h1.5v-1h1.5l0.5,1H288l-1.5-1.5h1v1h1.5v2.5h-2l1,1.5H287v-1.5 H285v1h-1.5v-1.5h0.5v-0.5H282v1.5H281v-1h-0.5v5H279v1h-1V253h0.5V251h-2V250h-1.5v-1h1v-1H275L275,246h1V245h-1V241h0.5v1h1.5 v-1H275V240L275,240h-0.5v-2H274l-0.5,1v-2H271v2.5h0.5v-0.5h1V237L271,237h0.5V235h-2v2h-1V236h-0.5v2H267V236H266V238H265V237 H264v3h1v-1H267v2.5h1v-1h1V242H268M195.5,394l-3-1v2.5l5.5,1l2-3v3H202l-1.5-2.5h2V395.5H201v2l-1-1v1H197v2.5L195.5,394z M176,380l-2.5-0.5l0.5,2h2L176,380z M172,393l-0.5,2h2V393z" />
</svg>
